<svg width="35" height="34" viewBox="0 0 35 34" fill="none" xmlns="http://www.w3.org/2000/svg">
<g clip-path="url(#clip0_272_77317)">
<path d="M24.4192 2.8335H10.2525C6.34051 2.8335 3.16919 6.00481 3.16919 9.91683V24.0835C3.16919 27.9955 6.34051 31.1668 10.2525 31.1668H24.4192C28.3312 31.1668 31.5025 27.9955 31.5025 24.0835V9.91683C31.5025 6.00481 28.3312 2.8335 24.4192 2.8335Z" stroke="#80756C" stroke-width="2" stroke-linecap="round" stroke-linejoin="round"/>
<path d="M23.0025 16.1074C23.1773 17.2865 22.976 18.4906 22.427 19.5485C21.878 20.6065 21.0095 21.4644 19.9448 22.0003C18.8802 22.5362 17.6736 22.7227 16.4969 22.5333C15.3201 22.344 14.233 21.7884 13.3902 20.9456C12.5474 20.1028 11.9918 19.0157 11.8024 17.8389C11.6131 16.6621 11.7996 15.4556 12.3355 14.391C12.8713 13.3263 13.7293 12.4577 14.7872 11.9088C15.8452 11.3598 17.0493 11.1584 18.2283 11.3333C19.431 11.5116 20.5444 12.072 21.4041 12.9317C22.2638 13.7914 22.8242 14.9048 23.0025 16.1074Z" stroke="#80756C" stroke-width="2" stroke-linecap="round" stroke-linejoin="round"/>
</g>
<defs>
<clipPath id="clip0_272_77317">
<rect width="34" height="34" fill="white" transform="translate(0.335938)"/>
</clipPath>
</defs>
</svg>
