<svg width="35" height="34" viewBox="0 0 35 34" fill="none" xmlns="http://www.w3.org/2000/svg">
<path d="M29.9141 14.1665C29.9141 24.0832 17.1641 32.5832 17.1641 32.5832C17.1641 32.5832 4.41406 24.0832 4.41406 14.1665C4.41406 10.785 5.75736 7.54198 8.14845 5.15089C10.5395 2.7598 13.7826 1.4165 17.1641 1.4165C20.5456 1.4165 23.7886 2.7598 26.1797 5.15089C28.5708 7.54198 29.9141 10.785 29.9141 14.1665Z" stroke="#80756C" stroke-width="2" stroke-linecap="round" stroke-linejoin="round"/>
<path d="M17.1641 18.4165C19.5113 18.4165 21.4141 16.5137 21.4141 14.1665C21.4141 11.8193 19.5113 9.9165 17.1641 9.9165C14.8169 9.9165 12.9141 11.8193 12.9141 14.1665C12.9141 16.5137 14.8169 18.4165 17.1641 18.4165Z" stroke="#80756C" stroke-width="2" stroke-linecap="round" stroke-linejoin="round"/>
</svg>
