<svg width="35" height="34" viewBox="0 0 35 34" fill="none" xmlns="http://www.w3.org/2000/svg">
<path d="M31.7527 23.9698V28.2198C31.7543 28.6144 31.6735 29.0049 31.5154 29.3664C31.3574 29.7279 31.1256 30.0524 30.8348 30.3191C30.5441 30.5858 30.2009 30.7889 29.8271 30.9153C29.4534 31.0417 29.0573 31.0887 28.6644 31.0531C24.3051 30.5795 20.1176 29.0899 16.4385 26.704C13.0156 24.5289 10.1136 21.6269 7.93855 18.204C5.54435 14.5082 4.05439 10.3004 3.58938 5.92148C3.55398 5.52972 3.60054 5.13489 3.72609 4.76211C3.85164 4.38934 4.05344 4.04679 4.31863 3.75628C4.58382 3.46576 4.9066 3.23365 5.26642 3.07472C5.62623 2.91579 6.0152 2.83352 6.40855 2.83315H10.6585C11.3461 2.82638 12.0126 3.06984 12.5339 3.51815C13.0552 3.96646 13.3957 4.58903 13.4919 5.26981C13.6713 6.62991 14.0039 7.96534 14.4835 9.25065C14.6741 9.7577 14.7154 10.3088 14.6024 10.8386C14.4894 11.3683 14.2269 11.8546 13.846 12.2398L12.0469 14.039C14.0636 17.5857 17.0002 20.5223 20.5469 22.539L22.346 20.7398C22.7312 20.3589 23.2175 20.0964 23.7473 19.9834C24.2771 19.8705 24.8282 19.9117 25.3352 20.1023C26.6205 20.5819 27.956 20.9146 29.316 21.094C30.0042 21.1911 30.6327 21.5377 31.082 22.0679C31.5312 22.5982 31.77 23.275 31.7527 23.9698Z" stroke="#80756C" stroke-width="2" stroke-linecap="round" stroke-linejoin="round"/>
</svg>
