<svg width="35" height="34" viewBox="0 0 35 34" fill="none" xmlns="http://www.w3.org/2000/svg">
<g clip-path="url(#clip0_272_77313)">
<path d="M32.8456 9.09484C32.6774 8.4225 32.3346 7.80648 31.8521 7.309C31.3695 6.81151 30.7642 6.45018 30.0973 6.2615C27.6606 5.6665 17.914 5.6665 17.914 5.6665C17.914 5.6665 8.16731 5.6665 5.73064 6.31817C5.06374 6.50685 4.45844 6.86818 3.97588 7.36566C3.49332 7.86315 3.15059 8.47917 2.98231 9.1515C2.53636 11.6244 2.31823 14.1329 2.33064 16.6457C2.31475 19.1773 2.5329 21.705 2.98231 24.1965C3.16784 24.848 3.51824 25.4405 3.99968 25.917C4.48112 26.3935 5.07731 26.7377 5.73064 26.9165C8.16731 27.5682 17.914 27.5682 17.914 27.5682C17.914 27.5682 27.6606 27.5682 30.0973 26.9165C30.7642 26.7278 31.3695 26.3665 31.8521 25.869C32.3346 25.3715 32.6774 24.7555 32.8456 24.0832C33.2882 21.6289 33.5063 19.1395 33.4973 16.6457C33.5132 14.114 33.2951 11.5863 32.8456 9.09484Z" stroke="#80756C" stroke-width="2" stroke-linecap="round" stroke-linejoin="round"/>
<path d="M14.7266 21.2782L22.8724 16.6457L14.7266 12.0132V21.2782Z" stroke="#80756C" stroke-width="2" stroke-linecap="round" stroke-linejoin="round"/>
</g>
<defs>
<clipPath id="clip0_272_77313">
<rect width="34" height="34" fill="white" transform="translate(0.914062)"/>
</clipPath>
</defs>
</svg>
